<svg t="1710139817690" class="icon" viewBox="0 0 1024 1024" version="1.1" xmlns="http://www.w3.org/2000/svg" p-id="7350" width="128" height="128"><path d="M51.2 153.6v716.8a153.6 153.6 0 0 0 153.6 153.6h268.8a12.8 12.8 0 0 0 0-25.6H204.8q-53.0176 0-90.5216-37.504Q76.8 923.4432 76.8 870.4V256h422.4v52.8128a51.2 51.2 0 1 0 25.6 0V256H947.2v217.6a12.8 12.8 0 0 0 25.6 0V153.6a153.6 153.6 0 0 0-153.6-153.6H204.8a153.6 153.6 0 0 0-153.6 153.6z m25.6 76.8V153.6q0-53.0176 37.4784-90.5216Q151.808 25.6 204.8 25.6h614.4q53.0176 0 90.496 37.4784Q947.2 100.608 947.2 153.6v76.8H524.8V177.5616a51.2 51.2 0 1 0-25.6 0V230.4H76.8z m691.2 793.6c141.3888 0 256-114.6112 256-256s-114.6112-256-256-256-256 114.6112-256 256 114.6112 256 256 256z m214.2208-340.8128Q998.4 724.0448 998.4 768t-16.1792 84.8128q-17.5616 44.3648-51.3024 78.1056t-78.1056 51.3024Q811.9552 998.4 768 998.4t-84.8128-16.1792q-44.3648-17.5616-78.1056-51.3024t-51.3024-78.1056Q537.6 811.9552 537.6 768t16.1792-84.8128q17.5616-44.3648 51.3024-78.1056t78.1056-51.3024Q724.0448 537.6 768 537.6t84.8128 16.1792q44.3648 17.5616 78.1056 51.3024t51.3024 78.1056zM644.992 840.192Q614.4 809.2416 614.4 765.696 614.4 722.176 644.992 691.2q30.6176-30.976 73.5744-30.976l80.4608 0.2048-11.5968-11.2384a12.8 12.8 0 0 1-3.8912-8.96v-0.256c0-3.2768 1.28-6.4512 3.5072-8.832a12.5696 12.5696 0 0 1 8.8576-3.9168h0.256c3.2512 0 6.4 1.28 8.7552 3.5584l34.3552 33.28a12.8256 12.8256 0 0 1-8.7808 21.9648l-111.9232-0.2816q-32.512 0-55.68 23.4752-23.2192 23.5264-23.2192 56.5248 0 32.9984 23.1936 56.4224a12.8256 12.8256 0 0 1-8.32 21.76h-0.6144a12.5696 12.5696 0 0 1-8.9344-3.712z m246.016-144.384Q921.6 726.7584 921.6 770.304 921.6 813.824 890.9824 844.8q-30.592 30.976-73.5488 30.976l-80.4608-0.2048 11.5968 11.2384a12.8 12.8 0 0 1 3.8912 8.96v0.256c0 3.2768-1.28 6.4512-3.5072 8.832a12.5696 12.5696 0 0 1-8.8576 3.9168h-0.256a12.544 12.544 0 0 1-8.7552-3.5584l-34.3552-33.28a12.8256 12.8256 0 0 1 8.7808-21.9648l111.9232 0.2816q32.512 0 55.68-23.4752 23.2192-23.5264 23.2192-56.5248 0-32.9728-23.168-56.4224a12.8256 12.8256 0 0 1 8.9088-21.76c3.328 0 6.5536 1.3312 8.9344 3.712z" p-id="7351"></path></svg>
