<svg t="1710136534526" class="icon" viewBox="0 0 1024 1024" version="1.1" xmlns="http://www.w3.org/2000/svg" p-id="5438" width="128" height="128"><path d="M192 896c-32 0-32-32-32-32L160 416c0 0 0-32 32-32s608 0 640 0 32 32 32 32l0 448c0 0 0 32-32 32S224 896 192 896zM192 864l640 0L832 416 192 416 192 864z" fill="#272636" p-id="5439"></path><path d="M576 864" fill="#272636" p-id="5440"></path><path d="M576 672" fill="#272636" p-id="5441"></path><path d="M800 640" fill="#272636" p-id="5442"></path><path d="M768 384 544 256 544 224 800 384Z" fill="#272636" p-id="5443"></path><path d="M256 384 480 256 480 224 224 384Z" fill="#272636" p-id="5444"></path><path d="M544 222.930133C544 240.616533 529.677867 254.933333 512.010667 254.933333c-17.677867 0-32.010667-14.3168-32.010667-32.0032 0-17.664 14.333867-31.9968 32.010667-31.9968C529.677867 190.933333 544 205.266133 544 222.930133z" fill="#272636" p-id="5445"></path><path d="M800 832 224 832 224 448l576 0L800 832zM328.277333 714.7648l0-98.525867-45.172267 0 0 17.054933 27.426133 0 0 77.552c-6.069333 5.6864-15.901867 15.095467-29.499733 28.2336l9.448533 19.128533c12.1376-14.749867 21.355733-25.044267 27.656533-30.882133 10.446933 17.668267 28.731733 26.657067 54.852267 26.964267l54.8512 1.383467 76.285867-0.461867c2.6112-7.0688 4.762667-13.136 6.453333-18.206933l-76.7456 1.844267-57.386667-0.9216C353.7824 737.771733 337.726933 730.053333 328.277333 714.7648zM295.090133 548.711467c7.989333 10.6016 18.206933 25.659733 30.6528 45.172267l16.362667-11.5232c-13.674667-19.512533-24.4288-34.032-32.2656-43.559467L295.090133 548.711467zM373.911467 685.841067l43.328 0 0 35.953067 16.362667 0 0-35.953067 44.0192 0 0 11.2928c0 7.9904-4.148267 11.984-12.4448 11.984-6.914133 0-15.211733-0.536533-24.890667-1.613867 1.534933 5.992533 2.688 11.909333 3.457067 17.7472 9.371733 0.4608 18.052267 0.690133 26.043733 0.690133 16.132267 0 24.199467-8.757333 24.199467-26.273067l0-104.171733-49.435733 0c-2.535467-1.3056-5.147733-2.650667-7.835733-4.033067l55.6576-28.923733 0-15.442133L353.860267 547.0976l0 14.749867 108.0896 0-41.138133 21.5488c-10.6016-5.301333-21.933867-10.869333-33.9936-16.708267l-9.4496 11.0624c12.290133 5.9168 24.199467 11.831467 35.722667 17.746133l-55.5424 0 0 129.754667 16.363733 0L373.912533 685.841067zM373.911467 610.2464l43.328 0 0 23.0464-43.328 0L373.911467 610.2464zM373.911467 648.043733l43.328 0 0 23.0464-43.328 0L373.911467 648.043733zM477.621333 633.293867l-44.0192 0 0-23.0464 44.0192 0L477.621333 633.293867zM433.602133 648.043733l44.0192 0 0 23.0464-44.0192 0L433.602133 648.043733zM519.3376 654.0352l45.8624 0c-4.302933 37.643733-20.897067 68.144-49.781333 91.496533 4.609067 5.2224 8.910933 10.523733 12.906667 15.901867 23.969067-20.128 40.3328-44.941867 49.089067-74.4416 11.524267 13.522133 24.660267 30.1152 39.410133 49.781333l15.671467-11.754667c-13.828267-17.668267-30.4992-37.565867-50.011733-59.690667 0.4608-3.533867 0.9216-7.298133 1.383467-11.293867l45.4016 0 0-16.594133-44.020267 0c0.766933-14.4416 1.227733-32.2656 1.3824-53.4688l38.027733 0 0-16.594133L554.368 567.377067c3.070933-9.2192 6.0672-19.050667 8.987733-29.499733l-17.976533-4.148267c-7.0688 29.3472-16.594133 55.467733-28.578133 78.359467 4.762667 1.690667 10.600533 3.994667 17.515733 6.913067 4.9152-10.293333 9.678933-21.970133 14.289067-35.031467l19.589333 0c-0.154667 21.511467-0.690133 39.335467-1.6128 53.4688l-47.245867 0L519.336533 654.0352zM638.72 755.902933l18.206933 0 0-23.2768 61.765333 0 0 23.2768 18.206933 0L736.8992 559.543467 638.72 559.543467 638.72 755.902933zM718.692267 716.032l-61.765333 0 0-139.434667 61.765333 0L718.692267 716.032z" fill="#231815" p-id="5446"></path></svg>
