<svg t="1710306310601" class="icon" viewBox="0 0 1024 1024" version="1.1" xmlns="http://www.w3.org/2000/svg" p-id="5065" width="128" height="128"><path d="M147.925333 897.28c-13.653333 0-24.661333 8.96-24.661333 20.906667s11.050667 21.674667 24.661333 21.674666h690.218667c13.653333 0 24.661333-9.685333 24.661333-21.632s-11.008-20.906667-24.661333-20.906666H147.925333z" fill="#55625E" p-id="5066"></path><path d="M685.226667 177.066667a24.234667 24.234667 0 0 0-17.28 6.912L216.746667 673.92a24.234667 24.234667 0 0 0-6.912 17.322667v95.573333c0 13.397333 10.837333 24.277333 24.234666 24.277333h95.616a24.234667 24.234667 0 0 0 17.322667-6.954666L797.738667 314.197333a24.234667 24.234667 0 0 0 0-34.133333l-95.146667-95.658667a24.234667 24.234667 0 0 0-17.322667-6.912v-0.426666z" fill="#508A89" p-id="5067"></path><path d="M712.618667 345.344l-390.784 422.016H253.056v-68.778667l390.784-422.016z" fill="#EEFBF8" p-id="5068"></path></svg>
